:SAMPLES-PER-SECOND 30
:FRAME-RANGE 1-2643
:FULLY-SPECIFIED
:DEGREES
2478
root  6.81037 38.7316 -4.99631 0.626221 29.148 2.24194
RightUpLeg  16.6869 -6.33685 2.76813
RightLeg  5.50666 -22.4316 2.53976
RightFoot  -19.7896 0.357036 6.64587
RightToes  7.56698e-010 0 -3.6325e-017
Spine  6.59708 2.01161 3.16823
Spine1  2.03727 3.61235 -6.23027
HEad  -9.91307 42.048 -14.8638
LeftShoulder1  0.673758 1.52313 -27.8831
LeftArm  0.0847768 19.3703 -8.07222
LeftForeArm  3.48499 -7.80742 -15.0333
LeftHand  0.32936 0.129287 -7.34225
RightShoulder  7.84118 10.8741 47.7602
RightArm  13.8962 0.815233 16.5719
RightForeArm  13.9866 2.9872 16.8248
RightHand  0.50014 5.72839 4.88437
LeftUpLeg  -17.8201 3.34087 -7.42671
LeftLeg  5.0381 24.4526 -3.64121
LeftFoot  2.28532 -0.592484 4.84005
LeftToes  1.48244e-010 1.61973e-010 3.308e-011
2479
root  7.10382 38.646 -3.76931 -0.012207 26.8536 2.9994
RightUpLeg  18.4139 -9.59049 -0.148471
RightLeg  9.1073 -15.4656 1.76446
RightFoot  -20.0815 0.562893 9.13425
RightToes  7.56698e-010 0 -3.6325e-017
Spine  6.6902 2.23733 0.710046
Spine1  2.26107 3.78046 -6.25571
HEad  -11.3646 43.557 -16.1041
LeftShoulder1  0.633443 1.64675 -27.9772
LeftArm  -4.23353 18.5739 -5.45807
LeftForeArm  4.20885 -4.28432 -15.9459
LeftHand  0.204118 1.398 -6.25191
RightShoulder  7.95518 10.7433 48.9102
RightArm  16.7753 0.148923 17.0742
RightForeArm  12.786 3.45906 16.9897
RightHand  0.498675 5.92083 4.77513
LeftUpLeg  -17.8406 4.55452 -8.58086
LeftLeg  10.0466 25.4383 0.68797
LeftFoot  4.21786 -1.51678 10.8784
LeftToes  1.48244e-010 1.61973e-010 3.308e-011
2480
root  7.4041 38.5938 -2.60614 -0.285645 25.6971 4.38673
RightUpLeg  18.2787 -19.8015 -6.13959
RightLeg  17.3289 -1.19791 -0.244827
RightFoot  -19.6853 0.871669 13.7288
RightToes  7.56698e-010 0 -3.6325e-017
Spine  7.13519 2.17075 -2.16258
Spine1  1.97522 3.43794 -6.10939
HEad  -12.7214 44.9003 -17.7688
LeftShoulder1  0.700272 1.4993 -28.8234
LeftArm  -7.08305 16.5056 -3.98147
LeftForeArm  1.71266 -0.823424 -16.6467
LeftHand  0.0491935 3.37755 -4.08288
RightShoulder  8.10605 10.6466 50.1752
RightArm  16.844 0.0463797 17.604
RightForeArm  13.8153 1.71175 17.4796
RightHand  0.523091 5.95839 5.0059
LeftUpLeg  -17.8466 10.7248 -11.2124
LeftLeg  15.3912 19.4681 4.39116
LeftFoot  1.3552 -0.939024 8.35033
LeftToes  1.48244e-010 1.61973e-010 3.308e-011
2481
root  7.75592 38.6216 -1.64088 -0.687988 23.9706 4.80653
RightUpLeg  14.252 -18.4282 -8.02077
RightLeg  28.7703 2.32479 1.15317
RightFoot  -15.4117 0.612465 20.0115
RightToes  7.56698e-010 0 -3.6325e-017
Spine  7.34681 2.4088 -2.27214
Spine1  2.21547 3.91596 -8.19848
HEad  -12.1831 45.9573 -18.383
LeftShoulder1  0.840486 1.13889 -29.4452
LeftArm  -8.61952 13.2206 -4.76243
LeftForeArm  -0.803549 2.66073 -17.1316
LeftHand  -0.0289524 5.27721 -2.32369
RightShoulder  8.28755 10.982 50.1096
RightArm  16.6942 -1.16418 18.8039
RightForeArm  14.1327 0.489335 17.6967
RightHand  0.611306 5.98964 5.88616
LeftUpLeg  -16.7136 12.005 -10.9069
LeftLeg  17.8046 19.9199 5.33958
LeftFoot  -0.97889 -0.700282 7.77527
LeftToes  1.48244e-010 1.61973e-010 3.308e-011
2482
root  8.11894 38.6698 -0.783918 -0.578613 21.6536 5.22887
RightUpLeg  7.18657 -15.1346 -9.2456
RightLeg  41.8408 2.56234 2.17387
RightFoot  -6.49808 -1.10627 24.736
RightToes  7.56698e-010 0 -3.6325e-017
Spine  7.65585 2.83075 -2.44714
Spine1  1.72921 4.43729 -9.99855
HEad  -11.2699 47.8045 -19.1776
LeftShoulder1  0.925326 0.952414 -30.1865
LeftArm  -8.83613 10.4367 -7.06377
LeftForeArm  -1.87787 3.94025 -17.3567
LeftHand  -0.0445078 6.06095 -1.6472
RightShoulder  8.52589 11.7179 49.0573
RightArm  20.464 -2.52538 20.2323
RightForeArm  11.634 1.18558 17.9329
RightHand  0.694408 5.81045 6.8475
LeftUpLeg  -15.5001 10.7658 -9.92061
LeftLeg  19.24 23.4977 5.61814
LeftFoot  -2.93374 -0.499464 7.02711
LeftToes  1.48244e-010 1.61973e-010 3.308e-011
2483
root  8.42362 38.6884 0.0592585 -0.612549 20.4517 5.8494
RightUpLeg  -0.355808 -12.4576 -10.2232
RightLeg  53.5435 1.95073 2.45394
RightFoot  6.16025 -3.12827 20.4025
RightToes  7.56698e-010 0 -3.6325e-017
Spine  8.35525 2.70621 -4.00377
Spine1  1.13418 4.03673 -10.3382
HEad  -12.3935 50.1294 -20.9218
LeftShoulder1  0.96672 0.906237 -31.1447
LeftArm  -7.61497 7.84396 -9.91438
LeftForeArm  -1.6314 3.06009 -17.5971
LeftHand  -0.0361966 5.58196 -2.09444
RightShoulder  8.82741 12.4374 48.4918
RightArm  25.0469 -3.07003 20.9276
RightForeArm  10.6833 3.33672 17.6742
RightHand  0.900926 6.19452 8.6536
LeftUpLeg  -14.0758 10.5907 -9.57367
LeftLeg  20.4553 24.7348 5.69785
LeftFoot  -4.87645 -0.278921 5.4556
LeftToes  1.48244e-010 1.61973e-010 3.308e-011
2484
root  8.71014 38.621 0.871119 -1.24609 20.3489 6.25706
RightUpLeg  -5.68763 -11.2539 -11.2047
RightLeg  61.7594 0.705056 0.909294
RightFoot  8.91587 -3.13282 17.7551
RightToes  7.56698e-010 0 -3.6325e-017
Spine  9.47304 2.43721 -5.6849
Spine1  1.1169 3.31408 -10.2509
HEad  -14.2943 52.0262 -22.8437
LeftShoulder1  1.14196 0.552726 -32.6322
LeftArm  -4.63283 4.1293 -13.1605
LeftForeArm  -0.43237 1.65522 -17.908
LeftHand  -0.00296958 4.41988 -2.84122
RightShoulder  8.5755 12.089 48.1599
RightArm  30.1672 -2.72617 21.0553
RightForeArm  9.78732 6.58281 16.7749
RightHand  1.07684 6.75567 9.8896
LeftUpLeg  -12.5064 10.0331 -9.4001
LeftLeg  22.3677 25.2631 6.44139
LeftFoot  -6.90039 -0.123185 4.24758
LeftToes  1.48244e-010 1.61973e-010 3.308e-011
2485
root  9.02245 38.6879 1.73991 -1.96191 20.9384 5.84004
RightUpLeg  -10.3013 -10.965 -11.2509
RightLeg  66.8566 -1.18721 -3.72242
RightFoot  5.36026 -2.49847 17.1561
RightToes  7.56698e-010 0 -3.6325e-017
Spine  9.90838 1.8607 -6.56935
Spine1  1.42365 2.40495 -9.70486
HEad  -16.3846 53.9331 -24.7158
LeftShoulder1  1.3494 0.169167 -34.391
LeftArm  0.702747 -0.599814 -16.7534
LeftForeArm  -0.336549 -0.402745 -18.2305
LeftHand  0.0329551 3.23079 -2.83456
RightShoulder  8.24283 11.5179 48.0545
RightArm  34.1728 -2.11295 20.88
RightForeArm  7.02221 9.57481 15.5749
RightHand  1.08682 6.9243 9.83853
LeftUpLeg  -10.418 9.00489 -8.64614
LeftLeg  22.888 25.5188 6.73406
LeftFoot  -8.27168 -0.0377184 3.26526
LeftToes  1.48244e-010 1.61973e-010 3.308e-011
2486
root  9.31485 38.7865 2.63927 -2.40308 22.1884 5.18903
RightUpLeg  -14.6102 -10.7955 -10.6683
RightLeg  68.367 -2.08116 -6.51357
RightFoot  4.49744 -1.94754 14.1575
RightToes  7.56698e-010 0 -3.6325e-017
Spine  10.1315 1.20799 -7.42663
Spine1  1.28495 1.42935 -8.75943
HEad  -16.7457 55.5444 -24.7765
LeftShoulder1  1.59633 -0.308635 -35.7755
LeftArm  6.89467 -6.44359 -21.3791
LeftForeArm  -0.621781 -1.57175 -18.5818
LeftHand  0.0361521 2.4253 -1.98469
RightShoulder  7.86981 10.876 47.9304
RightArm  34.6262 -1.77002 20.6977
RightForeArm  4.60391 11.07 14.766
RightHand  0.903257 6.54607 8.40209
LeftUpLeg  -8.41649 8.59224 -7.68402
LeftLeg  22.6914 24.5232 6.28272
LeftFoot  -9.52766 0.0180445 2.47982
LeftToes  1.48244e-010 1.61973e-010 3.308e-011
2487
root  9.6012 38.9119 3.55908 -2.76562 23.8542 4.44627
RightUpLeg  -17.9974 -10.3836 -9.86395
RightLeg  66.4081 -3.02608 -8.21816
RightFoot  3.53757 -1.59587 12.3639
RightToes  7.56698e-010 0 -3.6325e-017
Spine  10.447 0.45598 -8.14824
Spine1  0.756295 0.430171 -7.80676
HEad  -16.2726 56.8943 -23.4099
LeftShoulder1  1.75215 -0.644474 -36.1374
LeftArm  14.3852 -12.3081 -27.3713
LeftForeArm  -2.12587 -2.99231 -18.8032
LeftHand  0.0346241 1.99476 -1.58886
RightShoulder  7.57049 10.3578 47.8332
RightArm  29.937 -1.43595 20.6422
RightForeArm  6.255 10.2339 14.9165
RightHand  0.672267 6.19639 6.37697
LeftUpLeg  -6.23979 8.5848 -6.51158
LeftLeg  21.7732 22.9216 5.22267
LeftFoot  -10.521 0.0490731 1.97849
LeftToes  1.48244e-010 1.61973e-010 3.308e-011
2488
root  9.92047 39.038 4.49232 -3.00537 25.7325 3.6893
RightUpLeg  -20.2178 -9.91802 -9.16941
RightLeg  60.9865 -4.02616 -8.32
RightFoot  2.36692 -1.37257 11.5183
RightToes  7.56698e-010 0 -3.6325e-017
Spine  10.4398 -0.325418 -8.63041
Spine1  0.550755 -0.48078 -6.84195
HEad  -16.5327 57.8076 -22.8153
LeftShoulder1  1.88441 -0.975058 -35.982
LeftArm  21.9604 -17.7437 -34.0922
LeftForeArm  -3.84491 -4.8617 -18.6609
LeftHand  0.0516616 1.35676 -1.72698
RightShoulder  7.40663 10.1348 47.5603
RightArm  26.2407 -1.49805 20.6563
RightForeArm  7.01958 9.93349 14.7866
RightHand  0.465733 5.73562 4.52311
LeftUpLeg  -4.07169 8.73538 -5.29936
LeftLeg  20.5728 20.8515 4.03683
LeftFoot  -11.5213 0.0712419 1.29657
LeftToes  1.48244e-010 1.61973e-010 3.308e-011
2489
root  10.2584 39.1911 5.43822 -3.26025 27.4919 2.92445
RightUpLeg  -20.9882 -9.31659 -8.59615
RightLeg  52.1467 -5.6657 -8.12558
RightFoot  1.6939 -1.33602 11.7576
RightToes  7.56698e-010 0 -3.6325e-017
Spine  10.0791 -0.877603 -8.85526
Spine1  0.985143 -1.07321 -5.71146
HEad  -17.4203 57.9825 -23.0175
LeftShoulder1  2.03519 -1.36605 -35.7127
LeftArm  29.7807 -22.8213 -41.136
LeftForeArm  -4.95812 -6.89583 -18.1985
LeftHand  0.0836737 0.549603 -2.10218
RightShoulder  7.18052 9.7716 47.3687
RightArm  23.5613 -1.18876 20.4851
RightForeArm  7.56822 9.67888 14.7226
RightHand  0.378463 5.58877 3.67261
LeftUpLeg  -1.64734 8.78529 -4.12278
LeftLeg  18.7816 18.8961 2.94989
LeftFoot  -12.0032 0.0778692 1.00218
LeftToes  1.48244e-010 1.61973e-010 3.308e-011
